<?xml version="1.0" encoding="utf-8"?>
<!-- Generator: Adobe Illustrator 18.1.1, SVG Export Plug-In . SVG Version: 6.00 Build 0)  -->
<svg version="1.1" id="Layer_1" xmlns="http://www.w3.org/2000/svg" xmlns:xlink="http://www.w3.org/1999/xlink" x="0px" y="0px"
	 viewBox="141.6 89.8 328.8 612.2" enable-background="new 141.6 89.8 328.8 612.2" xml:space="preserve">
<g>
	<path fill="#383B47" d="M154.2,408.6c3.1,0,6.3-1.2,8.7-3.6l303.6-293.4c5-4.8,5.1-12.8,0.4-17.8c-4.8-5-12.8-5.1-17.8-0.4
		L145.5,386.8c-5,4.8-5.1,12.8-0.4,17.8C147.6,407.4,150.8,408.6,154.2,408.6z"/>
	<path fill="#383B47" d="M457.8,702c3.3,0,6.6-1.3,9.1-3.8c4.8-5,4.7-13-0.4-17.8L162.9,386.9c-5-4.8-13-4.7-17.8,0.4
		c-4.8,5-4.7,13,0.4,17.8l303.6,293.4C451.5,700.8,454.7,702,457.8,702z"/>
</g>
</svg>
